<svg width="17" height="16" viewBox="0 0 17 16" fill="none" xmlns="http://www.w3.org/2000/svg">
<path d="M16.4771 0.612549C16.3361 0.612549 16.2009 0.668548 16.1012 0.768227C16.0015 0.867906 15.9455 1.0031 15.9455 1.14407V11.5087L8.50429 14.9104L1.06304 11.5087V1.14407C1.06304 1.0031 1.00704 0.867906 0.907358 0.768227C0.807679 0.668548 0.672485 0.612549 0.531518 0.612549C0.390551 0.612549 0.255357 0.668548 0.155678 0.768227C0.0559991 0.867906 0 1.0031 0 1.14407L0 11.8542C0.00168959 11.9561 0.0326516 12.0554 0.0891953 12.1402C0.145739 12.225 0.225479 12.2918 0.318911 12.3325L8.29168 15.9468L8.50429 16L8.71689 15.9468L16.6897 12.3325C16.7831 12.2918 16.8628 12.225 16.9194 12.1402C16.9759 12.0554 17.0069 11.9561 17.0086 11.8542V1.14407C17.0086 1.0031 16.9526 0.867906 16.8529 0.768227C16.7532 0.668548 16.618 0.612549 16.4771 0.612549V0.612549Z" fill="#1C3F39"/>
</svg>
