<svg width="544" height="458" viewBox="0 0 544 458" fill="none" xmlns="http://www.w3.org/2000/svg">
<path d="M529.023 246.837C531.278 248.166 532.806 250.599 532.806 253.41C532.806 257.492 529.607 260.798 525.587 261.015V301.875C529.609 302.091 532.808 305.397 532.808 309.479C532.808 313.564 529.609 316.871 525.587 317.087V338.422H525.628V457.367H462.907V425.328C462.907 402.691 430.516 387.863 430.516 387.863C430.516 387.863 398.128 402.693 398.128 425.328V457.367H317.417V402.013C317.417 370.276 272.001 349.482 272.001 349.482C272.001 349.482 226.581 370.274 226.581 402.013V457.367H145.871V425.328C145.871 402.691 113.483 387.863 113.483 387.863C113.483 387.863 81.0919 402.693 81.0919 425.328V457.367H18.3709V338.421H18.4148V316.991C14.3929 316.772 11.1907 313.466 11.1907 309.387C11.1907 305.306 14.3929 302.002 18.4148 301.783V260.919C14.3929 260.7 11.1907 257.396 11.1907 253.315C11.1907 250.505 12.7223 248.075 14.9801 246.746C5.73931 238.251 0 228.42 0 214.389C0 173.033 50.3448 164.881 50.3448 145.858C50.3448 164.882 100.701 173.033 100.701 214.389C100.701 228.419 94.9616 238.249 85.7237 246.746C87.9828 248.074 89.5173 250.505 89.5173 253.315C89.5173 257.397 86.3122 260.701 82.2846 260.919V301.783C86.3122 301.999 89.5173 305.305 89.5173 309.387C89.5173 313.468 86.3122 316.774 82.2846 316.991V338.421H176.676V307.303H187.507V285.877H188.404C169.306 267.257 157.612 245.613 157.612 215.401C157.612 128.9 254.563 106.342 269.949 69.59C266.226 68.1345 262.709 66.1367 259.571 63.5935C251.457 57.0192 246.384 47.6746 245.292 37.282C244.199 26.8895 247.216 16.6943 253.783 8.57219C256.383 5.3546 259.449 2.58713 262.895 0.347884L263.431 0L263.202 0.596376C257.211 16.2867 261.952 33.9338 274.996 44.5109C281.863 50.0714 290.492 53.1342 299.298 53.1342C306.804 53.1342 314.086 50.983 320.356 46.9149L320.893 46.5656L320.664 47.1634C319.183 51.01 317.117 54.5883 314.524 57.8016C307.07 67.0213 295.992 72.3091 284.13 72.3091C280.955 72.3091 277.807 71.8974 274.751 71.1363C292.151 106.991 386.387 130.119 386.387 215.402C386.387 245.616 374.688 267.259 355.591 285.878H356.489V307.304H367.323V338.422H461.711V317.087C457.688 316.87 454.493 313.563 454.493 309.479C454.493 305.397 457.688 302.093 461.711 301.875V261.014C457.688 260.795 454.493 257.492 454.493 253.41C454.493 250.596 456.021 248.165 458.276 246.836C449.034 238.336 443.299 228.506 443.299 214.477C443.299 173.121 493.65 164.976 493.65 145.953C493.65 164.976 544 173.121 544 214.477C544 228.507 538.264 238.337 529.023 246.837Z" fill="#20453F"/>
</svg>
